<svg width="16" height="143" viewBox="0 0 16 143" fill="none" xmlns="http://www.w3.org/2000/svg">
<path fill-rule="evenodd" clip-rule="evenodd" d="M15.4199 131.168C15.6538 131.409 15.9722 131.759 15.9722 132.115C15.9706 133.876 15.9799 135.641 15.9999 137.407C16.006 138.05 15.7861 138.403 15.3553 138.826C14.1755 139.985 13.0048 141.151 11.8418 142.327C11.3865 142.787 10.9173 142.846 10.2297 142.834C8.51143 142.802 6.79314 142.799 5.0764 142.831C4.88565 142.834 4.67798 142.724 4.45185 142.5C3.05661 141.117 1.64906 139.746 0.232286 138.384C0.0492284 138.208 -0.0107653 137.877 0.00154106 137.599C0.0815327 135.786 0.0861516 133.973 0.0200046 132.161C0.00615991 131.819 0.184603 131.476 0.553795 131.133C1.86135 129.92 3.12891 128.668 4.35955 127.378C4.71182 127.008 5.18254 127.038 5.81632 127.035C7.52076 127.026 9.2252 127.015 10.9296 127C11.1404 126.998 11.3634 127.113 11.5988 127.343C12.8864 128.607 14.1601 129.881 15.4215 131.17L15.4199 131.168Z" fill="#05243F"/>
<line x1="8" y1="19" x2="8" y2="124" stroke="#05243F" stroke-width="2"/>
<path fill-rule="evenodd" clip-rule="evenodd" d="M15.4199 4.58705C15.6538 4.82754 15.9722 5.17832 15.9722 5.5337C15.9706 7.29527 15.9799 9.0599 15.9999 10.8261C16.006 11.4694 15.7861 11.8217 15.3553 12.2445C14.1755 13.4041 13.0048 14.5698 11.8418 15.7462C11.3865 16.2057 10.9173 16.2655 10.2297 16.2532C8.51143 16.2211 6.79314 16.218 5.0764 16.2502C4.88565 16.2532 4.67798 16.1429 4.45185 15.9193C3.05661 14.5361 1.64906 13.1651 0.232286 11.8034C0.0492284 11.6272 -0.0107653 11.2963 0.00154106 11.0175C0.0815327 9.20542 0.0861516 7.39177 0.0200046 5.57965C0.00615991 5.23806 0.184603 4.89494 0.553795 4.55182C1.86135 3.33863 3.12891 2.08715 4.35955 0.797374C4.71182 0.426678 5.18254 0.457316 5.81632 0.454252C7.52076 0.445061 9.2252 0.434339 10.9296 0.419021C11.1404 0.41749 11.3634 0.532373 11.5988 0.762143C12.8864 2.02588 14.1601 3.30034 15.4215 4.58858L15.4199 4.58705Z" fill="#05243F"/>
</svg>
