<svg width="218" height="58" viewBox="0 0 218 58" fill="none" xmlns="http://www.w3.org/2000/svg">
<path fill-rule="evenodd" clip-rule="evenodd" d="M33.1116 26.766C33.2618 26.9196 33.4664 27.1436 33.4664 27.3705C33.4654 28.4954 33.4714 29.6223 33.4842 30.7501C33.4882 31.1609 33.3468 31.3859 33.0701 31.6559C32.3121 32.3964 31.5599 33.1408 30.8128 33.892C30.5202 34.1855 30.2188 34.2236 29.777 34.2158C28.673 34.1953 27.5691 34.1933 26.4661 34.2138C26.3435 34.2158 26.2101 34.1454 26.0648 34.0026C25.1684 33.1193 24.2641 32.2438 23.3538 31.3742C23.2362 31.2617 23.1977 31.0504 23.2056 30.8724C23.257 29.7152 23.2599 28.557 23.2174 27.3999C23.2085 27.1817 23.3232 26.9626 23.5604 26.7435C24.4005 25.9688 25.2149 25.1696 26.0055 24.346C26.2318 24.1093 26.5343 24.1288 26.9415 24.1269C28.0365 24.121 29.1316 24.1142 30.2267 24.1044C30.3621 24.1034 30.5054 24.1768 30.6566 24.3235C31.4838 25.1305 32.3022 25.9443 33.1126 26.767L33.1116 26.766Z" fill="#FCF396"/>
<path fill-rule="evenodd" clip-rule="evenodd" d="M31.6195 11.5495C31.5869 11.5916 31.6264 11.6346 31.7341 11.6786C31.7539 11.6855 31.7569 11.6962 31.742 11.7119L31.7134 11.7412C31.7015 11.753 31.7025 11.7637 31.7173 11.7735C31.7569 11.797 31.7816 11.8263 31.7905 11.8586C31.7934 11.8703 31.8033 11.8811 31.8152 11.886C31.8784 11.9065 31.9259 11.9476 31.9585 12.0102C31.9703 12.0327 31.9842 12.0347 32.002 12.0161L32.0227 11.9955C32.0445 11.9721 32.0632 11.974 32.0791 12.0024C32.1057 12.0493 32.1423 12.065 32.1878 12.0474C32.255 12.0229 32.2817 12.0513 32.2688 12.1305C32.2599 12.1834 32.2718 12.2303 32.3014 12.2704C32.3182 12.2939 32.3192 12.3164 32.3024 12.3408C32.2817 12.3731 32.253 12.3858 32.2174 12.379C32.1927 12.3741 32.1799 12.4064 32.1996 12.4211C32.2164 12.4318 32.2342 12.4347 32.251 12.4279C32.255 12.4259 32.255 12.4211 32.25 12.4201C32.1917 12.4113 32.1295 12.4181 32.0613 12.4416C32.0445 12.4484 32.0455 12.4553 32.0603 12.4631C32.0692 12.467 32.0781 12.47 32.088 12.4719C32.1057 12.4739 32.1067 12.4788 32.0899 12.4846C32.0287 12.5081 31.9822 12.4925 31.9189 12.5365C30.9711 12.5414 30.1775 12.3291 29.3019 11.9985C28.7909 11.8058 28.6318 11.4928 28.019 11.7481C27.5634 11.9378 27.0979 12.1501 26.6383 12.2694C24.8771 12.7282 23.0823 12.6588 21.5514 11.6101C21.41 11.5133 21.1956 11.301 20.986 11.2208C20.909 11.1905 20.8724 11.2169 20.8754 11.2981C20.9287 13.4071 19.1942 15.1844 17.4152 16.0589C16.9902 16.2672 16.5534 16.4463 16.1027 16.5959C15.9693 16.6399 15.8922 16.6986 15.8714 16.771C15.4099 18.3645 14.3672 19.9589 12.9055 20.8246C12.8491 20.7072 12.7819 20.6553 12.7048 20.67C12.6722 20.6759 12.6436 20.67 12.6149 20.6544L12.4429 20.5575C12.4212 20.5448 12.4064 20.5272 12.3994 20.5037C12.3856 20.4538 12.3787 20.3903 12.3767 20.313C12.3737 20.1702 12.3184 20.087 12.2107 20.0665C13.4016 19.4493 14.2743 18.2588 14.7447 17.0263C14.7665 16.9715 14.7438 16.9099 14.6924 16.8806C14.6756 16.8708 14.639 16.8669 14.5846 16.8678C13.5667 16.8855 12.5783 16.7583 11.7125 16.2545C9.84361 15.1678 8.38089 13.3092 8.09427 11.1612C8.00828 10.5126 8.02014 9.90225 8.12985 9.32708C8.21979 8.8556 9.31189 8.78517 9.69141 8.79104C9.89402 8.79397 10.3605 8.86245 11.0919 8.99548C11.4961 9.06884 12.0288 9.29187 12.692 9.66162C13.5083 10.1174 14.2446 10.721 14.8989 11.4712C15.57 12.2411 16.1126 13.3171 16.1324 14.2835C16.1393 14.6444 16.1531 14.9839 16.1739 15.3037C16.1808 15.4055 16.2855 15.472 16.3824 15.4348C17.5378 14.9917 18.6615 14.1573 19.3 13.1772C19.5895 12.7311 19.7714 12.1814 19.8445 11.526C20.0155 9.98344 19.2199 8.31662 17.3865 8.56117C16.7926 8.6404 16.3221 8.97102 16.0968 9.52761C15.9732 9.83378 16.0276 10.2114 16.0296 10.5527C16.0325 11.1572 15.1094 11.167 15.0501 10.7807C14.8574 9.50706 15.3002 8.54063 16.3775 7.88134C16.8657 7.58201 17.5585 7.50278 18.1149 7.58299C18.6249 7.65733 19.1754 7.96644 19.6686 8.20511C19.6903 8.21489 19.7151 8.20413 19.721 8.18261C20.1479 6.81512 20.7815 5.8301 22.2768 5.53078C22.5634 5.47306 22.8026 5.51806 23.1129 5.58947C23.7712 5.73913 24.3088 6.0766 24.7269 6.59992C24.9156 6.83469 24.9315 7.20541 24.6221 7.3541C24.2515 7.53115 23.958 7.22498 23.6931 6.91979C23.2058 6.36125 22.1711 6.41309 21.5919 6.82588C20.9445 7.28856 20.6945 7.9322 20.8398 8.75876C21.0167 9.76139 21.5573 10.5107 22.4616 11.0076C23.3729 11.5084 24.2545 11.5935 25.3149 11.482C25.9198 11.4184 26.5069 11.2707 27.0751 11.0399C27.1779 10.9988 27.2461 10.9606 27.2787 10.9284C27.3509 10.8569 27.3509 10.7865 27.2787 10.7161C26.3972 9.84258 25.6608 8.86245 25.5057 7.61038C25.3723 6.52754 25.3693 5.25591 25.7488 4.21806C25.8714 3.87863 25.9613 3.52747 26.1283 3.22228C26.5652 2.42995 27.3035 1.40385 28.1099 0.949973C28.4005 0.786617 28.7158 0.916715 28.9895 1.14072C30.1281 2.06803 31.0453 3.41107 31.3032 4.94191C31.4979 6.09518 31.5197 7.17314 31.1619 8.3088C30.8585 9.27133 30.2882 10.0265 29.5381 10.6887C29.4936 10.7278 29.463 10.766 29.4471 10.8032C29.4244 10.856 29.4452 10.9186 29.4966 10.946C30.2042 11.3245 30.8466 11.3969 31.6205 11.5495H31.6195ZM26.5276 5.14244C26.2321 6.97946 26.4772 8.86734 28.0467 10.093C28.2552 10.2554 28.4242 10.3366 28.6248 10.1898C29.1052 9.83965 29.4936 9.41903 29.7911 8.93092C30.0411 8.52008 30.2131 8.02611 30.305 7.44898C30.6084 5.55327 30.2101 3.56366 28.7415 2.21182C28.5339 2.0201 28.4242 1.88022 28.1771 2.10324C27.259 2.93176 26.7164 3.96569 26.5266 5.14244H26.5276ZM14.3168 12.3056C13.0557 10.6594 11.3271 9.70759 9.21306 9.8103C9.14388 9.81421 9.08655 9.86703 9.07865 9.93649C9.0144 10.5332 9.08853 11.0193 9.23381 11.6943C9.55206 13.1801 10.66 14.4928 11.9379 15.294C12.7918 15.828 13.7485 15.9161 14.7675 15.828C14.9958 15.8085 15.0699 15.7713 15.1015 15.5434C15.2774 14.3383 15.062 13.2799 14.3158 12.3056H14.3168Z" fill="#FCF396"/>
<path fill-rule="evenodd" clip-rule="evenodd" d="M44.1545 38.1227C44.0507 38.1246 43.9657 38.1139 43.9005 38.0865C43.8699 38.0738 43.855 38.0513 43.854 38.019V37.9544C43.8521 37.93 43.8333 37.9094 43.8096 37.9055C43.6465 37.8791 43.5388 37.7881 43.4854 37.6326C43.4745 37.6013 43.4528 37.5866 43.4182 37.5876C43.3688 37.5886 43.3312 37.5749 43.3085 37.5475C43.8906 37.0799 44.616 36.6779 45.3612 36.5429C45.6469 36.4921 45.9829 36.4911 46.2507 36.3835C46.316 36.3571 46.3367 36.2769 46.2942 36.2231C45.8574 35.6792 45.5154 35.1001 45.2723 34.4858C44.7771 33.2406 44.9867 31.5933 45.3988 30.3129C45.5915 29.7143 46.1578 29.187 45.808 28.5326C45.0578 27.1221 44.8196 25.4837 45.1665 23.9303C45.3504 23.1096 45.7259 22.4386 46.2656 21.8038C46.317 21.7431 46.3061 21.6746 46.2329 21.5983C46.2033 21.567 46.1391 21.5475 46.0363 21.5387C43.854 21.3469 42.0622 19.6479 41.234 17.7042C41.1124 17.4186 40.9968 17.13 40.8871 16.8395C40.8347 16.6977 40.7606 16.6135 40.6677 16.5862C39.8197 16.3338 39.1308 16.0129 38.6011 15.6207C37.6859 14.9448 37.1947 14.4831 36.5898 13.5567C36.1253 12.8437 36.0344 12.2832 35.899 11.3695C35.8861 11.2844 35.8397 11.2463 35.7596 11.2551C35.7369 11.258 35.7161 11.2668 35.6983 11.2795C35.0045 11.8361 34.2317 12.2206 33.3787 12.4338C33.018 12.5228 32.5317 12.558 31.919 12.5355C31.9822 12.4915 32.0297 12.5062 32.0899 12.4837C32.1067 12.4768 32.1058 12.4729 32.088 12.471C32.0781 12.47 32.0692 12.4671 32.0603 12.4622C32.0455 12.4543 32.0455 12.4475 32.0613 12.4406C32.1295 12.4172 32.1917 12.4103 32.2501 12.4191C32.255 12.4191 32.255 12.425 32.251 12.4269C32.2333 12.4338 32.2165 12.4309 32.1997 12.4201C32.1799 12.4054 32.1927 12.3731 32.2174 12.378C32.253 12.3849 32.2817 12.3722 32.3024 12.3399C32.3183 12.3164 32.3183 12.2929 32.3015 12.2695C32.2718 12.2294 32.2609 12.1824 32.2688 12.1296C32.2817 12.0504 32.255 12.023 32.1878 12.0464C32.1423 12.0631 32.1048 12.0474 32.0791 12.0014C32.0643 11.9741 32.0445 11.9721 32.0227 11.9946L32.002 12.0151C31.9842 12.0337 31.9704 12.0318 31.9585 12.0093C31.9259 11.9467 31.8784 11.9066 31.8152 11.885C31.8023 11.8801 31.7934 11.8694 31.7905 11.8576C31.7816 11.8254 31.7579 11.796 31.7173 11.7725C31.7015 11.7628 31.7005 11.753 31.7134 11.7403L31.7421 11.7109C31.7569 11.6953 31.7539 11.6845 31.7341 11.6777C31.6264 11.6336 31.5869 11.5906 31.6195 11.5485C32.2797 11.5926 32.7561 11.528 33.3787 11.3686C34.6823 11.037 35.5867 10.2515 35.9879 8.94855C36.0571 8.72748 36.063 8.43892 36.0077 8.08384C35.8496 7.06849 34.963 6.41507 33.9312 6.5481C33.3323 6.62538 33.0931 6.94524 32.7353 7.31793C32.3944 7.67301 31.5029 7.14381 32.089 6.58527C32.3884 6.29965 32.7057 5.97685 33.0565 5.79589C34.3997 5.10725 35.978 5.82425 36.6788 7.06263C36.8715 7.40205 36.9506 7.8168 37.0415 8.20905C37.0524 8.25698 37.1067 8.28046 37.1502 8.256C37.2984 8.16992 37.4497 8.08091 37.6058 7.98994C39.1081 7.10469 41.1272 7.68768 41.6965 9.38677C41.8052 9.71153 41.7894 10.0891 41.8023 10.4393C41.8201 10.8971 41.6066 11.0966 41.1638 11.0399C40.8466 10.9998 40.7843 10.7533 40.7932 10.4579C40.811 9.84847 40.7418 9.3271 40.2456 8.92116C39.796 8.55239 39.2603 8.48294 38.694 8.58076C38.0387 8.69422 37.3498 9.25765 37.1472 9.89836C36.3348 12.47 38.099 14.6699 40.4601 15.4661C40.5372 15.4916 40.6153 15.4348 40.6123 15.3537C40.5659 14.0038 40.8159 12.8798 41.6995 11.752C43.2581 9.76142 45.4621 8.5651 48.0436 8.88986C48.349 8.92801 48.5417 9.09332 48.6217 9.38482C48.8491 10.2084 48.7522 10.9597 48.5931 11.7804C48.3282 13.141 47.6107 14.1378 46.6599 15.1248C46.394 15.3996 46.0946 15.6148 45.7872 15.8496C45.041 16.4218 44.196 16.7495 43.2521 16.8336C42.9062 16.8649 42.5504 16.8913 42.1838 16.9119C42.1166 16.9168 42.0839 16.951 42.0849 17.0166C42.0859 17.1163 42.1146 17.2308 42.1709 17.3599C42.8904 19.0052 44.448 20.629 46.4158 20.5546C47.6107 20.5086 48.8975 19.9931 49.023 18.6335C49.109 17.6983 48.5921 16.8258 47.6136 16.7583C47.332 16.7388 47.1047 16.7192 46.9366 16.6967C46.2824 16.6126 46.4286 15.8858 46.987 15.7371C47.1867 15.6853 47.4525 15.6843 47.7856 15.7351C48.5852 15.8564 49.2029 16.2497 49.6377 16.9148C50.2179 17.804 50.1952 18.7939 49.7405 19.7222C49.6338 19.9403 49.4519 20.1193 49.3007 20.3218C49.2711 20.3609 49.2938 20.4187 49.3432 20.4265C50.7536 20.6407 51.8575 21.569 52.1066 22.9805C52.1402 23.1693 52.1372 23.3718 52.0967 23.587C51.9514 24.3627 51.562 24.9682 50.9285 25.4025C50.5579 25.6568 50.0489 25.3281 50.1882 24.8928C50.2149 24.8107 50.3157 24.6786 50.4936 24.4977C50.9918 23.989 51.1025 23.6946 51.0412 22.9199C51.0026 22.4269 50.6547 22.0679 50.2416 21.7891C48.9726 20.9361 47.3013 21.8321 46.6075 23.001C45.8258 24.3167 45.9661 26.1899 46.4128 27.5447C46.4464 27.6464 46.5126 27.7667 46.6135 27.9037C46.6312 27.9262 46.652 27.933 46.6787 27.9213C46.7864 27.8743 46.8665 27.8254 46.9188 27.7726C47.8331 26.8678 48.8965 26.2134 50.1873 26.096C52.16 25.916 53.854 26.1909 55.46 27.3999C55.718 27.5936 56.0589 27.9037 56.4829 28.3302C57.0967 28.9464 56.6855 29.4609 56.1884 29.9901C54.9797 31.2774 53.1532 31.9807 51.3634 31.9885C50.2762 31.9924 49.3551 31.8487 48.3608 31.3116C48.0011 31.116 47.7461 30.9536 47.5988 30.8245C47.3458 30.6054 47.1017 30.3755 46.8625 30.1368C46.7429 30.0165 46.5364 30.0703 46.4919 30.2337C46.4197 30.4997 46.3091 30.7717 46.2537 31.0319C46.1529 31.4994 46.0699 31.9699 46.0027 32.4444C45.9226 33.0058 46.0639 33.4754 46.2142 34.1523C46.31 34.5797 46.5383 35.0043 46.9021 35.4258C47.9764 36.672 49.8532 37.0672 50.884 35.5266C51.0293 35.3104 51.056 34.8311 51.0392 34.566C51.0135 34.1601 50.8593 33.8578 50.5757 33.5702C50.2841 33.2748 49.9155 33.0283 50.3424 32.5921C50.5757 32.3534 50.8366 32.462 51.0708 32.6781C52.0157 33.5468 52.3962 34.568 51.8565 35.7819C51.567 36.4324 51.1044 36.9097 50.4679 37.2169C50.1497 37.3705 49.7119 37.4614 49.3373 37.5788C49.3037 37.5886 49.2978 37.6072 49.3195 37.6346C49.8196 38.2723 50.0934 38.9766 50.037 39.7699C49.957 40.93 49.2296 41.875 48.0801 42.185C47.6967 42.2887 46.142 42.4452 46.4642 41.5923C46.5383 41.3966 46.7034 41.2871 46.9584 41.2636C47.5089 41.2118 48.0287 41.2822 48.4854 40.8635C48.7571 40.6131 48.9182 40.2757 48.9677 39.8521C49.1209 38.5462 48.3322 37.7774 47.1432 37.4878C46.1035 37.2355 45.0173 37.5074 44.1535 38.1178L44.1545 38.1227ZM47.4822 9.86412C46.2784 9.76337 45.0114 10.1546 44.0359 10.8325C43.4745 11.2238 42.9942 11.7735 42.5346 12.3262C42.1393 12.8006 41.8803 13.3259 41.7548 13.903C41.652 14.3745 41.6847 15.0044 41.6708 15.5395C41.6659 15.7136 41.7509 15.8124 41.9238 15.8339C42.7926 15.9406 43.6327 15.83 44.4421 15.5033C44.9857 15.2842 45.5134 14.8382 45.9513 14.443C46.5779 13.8776 47.0355 13.1312 47.3666 12.3643C47.6739 11.6503 47.7836 10.8531 47.7135 10.0832C47.7016 9.94433 47.6136 9.87488 47.4822 9.86412ZM51.904 27.0507C51.4543 27.0008 51.054 27.0292 50.5846 27.0595C49.2286 27.1505 48.262 27.7217 47.3972 28.7322C47.3369 28.8016 47.2915 28.8809 47.2598 28.9669C47.2499 28.9953 47.2509 29.0247 47.2648 29.0511C47.6542 29.8111 48.7137 30.58 49.5448 30.7687C51.7103 31.2617 54.0744 30.8225 55.5974 29.1244C55.6418 29.0745 55.6547 29.0031 55.627 28.9415C55.5895 28.8515 55.5252 28.7605 55.4343 28.6696C54.4776 27.7139 53.2837 27.2072 51.904 27.0507Z" fill="#FCF396"/>
<path fill-rule="evenodd" clip-rule="evenodd" d="M42.238 36.8773C42.2192 36.8088 42.1915 36.7668 42.155 36.7492C42.1303 36.7374 42.1144 36.7179 42.1065 36.6914C42.0828 36.6083 42.0314 36.5379 41.9761 36.443C41.9425 36.3843 41.8871 36.351 41.811 36.3432C41.7834 36.3403 41.7646 36.3266 41.7547 36.3012L41.7231 36.218C41.7082 36.1759 41.6825 36.1701 41.6489 36.2014C41.64 36.2102 41.6361 36.22 41.6341 36.2317C41.6282 36.2689 41.6104 36.2767 41.5778 36.2571L41.5264 36.2239C42.3487 34.7282 42.8873 33.1407 43.1413 31.4592C43.1868 31.1628 43.2481 30.5886 43.3281 29.7366C43.4398 28.5491 43.3202 27.5827 43.1176 26.3296C43.0198 25.7329 42.918 25.2429 42.8102 24.8584C41.896 21.5855 39.8146 18.7223 36.986 16.809C35.6152 15.8817 34.0714 15.107 32.58 14.7138C32.3567 14.6541 31.8862 14.5494 31.1707 14.3968C30.6113 14.2785 30.0608 14.2403 29.4955 14.1914C28.0821 14.0701 26.8517 14.1885 25.4216 14.436C24.4135 14.6101 23.4103 14.9427 22.4793 15.3251C22.4378 15.2723 22.4556 15.241 22.5327 15.2312C22.5554 15.2283 22.5633 15.2165 22.5534 15.195L22.3735 14.7529C22.3617 14.7235 22.3439 14.6981 22.3202 14.6766C22.2727 14.6355 22.2401 14.5837 22.2213 14.522C22.2144 14.4966 22.2213 14.477 22.2421 14.4614C22.2856 14.4301 22.3034 14.3841 22.2905 14.3254C23.3075 13.8813 24.4451 13.5507 25.5224 13.3756C25.973 13.3013 26.4306 13.2083 26.8744 13.178C28.5407 13.0636 29.957 13.1369 31.5541 13.4588C34.4954 14.0515 37.0997 15.4376 39.2987 17.4214C41.0214 18.9727 42.2627 20.8724 43.2767 23.1163C43.4111 23.4146 43.6078 24.0064 43.8658 24.8927C44.0615 25.5598 44.1919 26.1672 44.2601 26.715C44.4746 28.462 44.4687 30.3343 44.0822 32.0627C43.9794 32.5225 43.8905 33.0008 43.763 33.4273C43.4042 34.6382 42.8952 35.7876 42.238 36.8763V36.8773Z" fill="#FCF396"/>
<path fill-rule="evenodd" clip-rule="evenodd" d="M12.2098 20.0645C12.3175 20.0851 12.3729 20.1673 12.3759 20.311C12.3778 20.3893 12.3857 20.4529 12.3986 20.5018C12.4055 20.5262 12.4203 20.5438 12.4421 20.5556L12.614 20.6524C12.6417 20.6681 12.6714 20.6739 12.704 20.6681C12.7811 20.6534 12.8483 20.7052 12.9046 20.8226C12.534 21.0447 12.1456 21.2139 11.7384 21.3313C11.3668 21.4379 10.9319 21.4555 10.5277 21.4907C10.4733 21.4966 10.4308 21.5074 10.4022 21.523C10.3587 21.5465 10.3498 21.6042 10.3834 21.6414C11.0475 22.3437 11.6544 23.3903 11.7176 24.3636C11.769 25.1648 11.8362 26.0911 11.6188 26.8257C11.603 26.7592 11.5664 26.725 11.5101 26.7201C11.4972 26.7191 11.4903 26.7113 11.4923 26.6985L11.4992 26.6584C11.5022 26.6408 11.4962 26.6291 11.4794 26.6222C11.4419 26.6066 11.433 26.5763 11.4547 26.5283C11.4587 26.5205 11.4696 26.5205 11.4735 26.5283C11.4775 26.5352 11.4814 26.542 11.4844 26.5489C11.4913 26.5616 11.4933 26.5547 11.4923 26.5303C11.4923 26.5117 11.4804 26.5009 11.4607 26.497C11.4379 26.4931 11.4221 26.4804 11.4122 26.4599L11.3183 26.2642C11.2897 26.2046 11.2165 26.1791 11.1572 26.2085C11.1147 26.229 11.0722 26.2271 11.0327 26.2016C11.0268 26.1977 11.0218 26.1987 11.0179 26.2046L10.9971 26.2329C10.9843 26.2496 10.9714 26.2505 10.9576 26.2359C10.9181 26.1977 10.8716 26.185 10.8182 26.1958C10.7935 26.2006 10.7817 26.1918 10.7807 26.1664C10.7807 26.1566 10.7807 26.1459 10.7807 26.1341C10.7807 26.1107 10.7718 26.1077 10.756 26.1243C10.7342 26.1459 10.7115 26.1508 10.6858 26.14C10.8439 25.4132 10.8074 24.6502 10.5781 23.852C10.2164 22.5951 9.03431 21.3724 7.61606 21.4203C6.78388 21.4477 6.18397 21.8262 5.81828 22.554C5.76096 22.6694 5.72242 22.913 5.70463 23.2847C5.68585 23.6887 5.92799 24.1406 6.2492 24.4253C6.52988 24.6747 6.83824 25.0278 6.42512 25.3516C6.23833 25.4964 6.04955 25.5003 5.85881 25.3614C4.08278 24.0712 4.4198 21.6756 6.3164 20.7454C6.62674 20.5937 7.03196 20.5077 7.39171 20.4118C7.45891 20.3942 7.48757 20.315 7.44606 20.2582C6.91928 19.551 6.62279 18.6687 6.80365 17.801C6.93806 17.1545 7.27212 16.6253 7.80384 16.2135C8.33062 15.8056 8.94635 15.6275 9.65004 15.6784C10.501 15.741 10.5702 16.6781 9.6955 16.6889C9.19146 16.6947 8.72299 16.7143 8.31579 17.0478C7.37589 17.8196 7.6467 19.326 8.52137 19.9736C8.81885 20.1966 9.17762 20.359 9.59469 20.4617C10.4891 20.6828 11.4093 20.4969 12.2138 20.0645H12.2098Z" fill="#FCF396"/>
<path fill-rule="evenodd" clip-rule="evenodd" d="M22.2895 14.3256C22.3014 14.3843 22.2846 14.4302 22.2411 14.4615C22.2193 14.4762 22.2134 14.4967 22.2203 14.5222C22.2391 14.5838 22.2717 14.6347 22.3192 14.6767C22.3439 14.6982 22.3617 14.7237 22.3725 14.753L22.5524 15.1952C22.5623 15.2167 22.5544 15.2294 22.5317 15.2314C22.4546 15.2402 22.4378 15.2724 22.4783 15.3253C19.4332 16.6145 16.8754 18.8897 15.2744 21.6971C14.7555 22.6049 14.3226 23.6466 13.9757 24.8224C13.948 24.8077 13.9332 24.7754 13.9302 24.7255C13.9282 24.7001 13.9154 24.6933 13.8937 24.705C13.8818 24.7118 13.868 24.7216 13.8551 24.7343C13.8373 24.7519 13.8195 24.752 13.8008 24.7353C13.6169 24.5759 13.6456 24.4517 13.358 24.4086C13.3283 24.4047 13.3125 24.3871 13.3115 24.3568C13.3096 24.3088 13.2858 24.2775 13.2364 24.2638C13.2196 24.2589 13.2117 24.2482 13.2107 24.2316V24.2042C13.2087 24.1611 13.19 24.1514 13.1564 24.1778L13.106 24.2169C14.5301 19.775 17.929 16.1156 22.2905 14.3275L22.2895 14.3256Z" fill="#FCF396"/>
<path fill-rule="evenodd" clip-rule="evenodd" d="M13.9768 24.8215C13.707 26.0031 13.5251 27.1984 13.4322 28.4055C13.3789 29.0941 13.3937 29.7172 13.4886 30.446C13.6674 31.8154 13.8315 32.7701 14.2634 33.9821C16.0147 38.9053 20.2487 42.5157 25.3979 43.5389C25.7112 43.6025 26.1026 43.6543 26.5701 43.6964C27.0969 43.7433 27.6227 43.8089 28.1415 43.8128C29.2989 43.8225 30.0154 43.7169 30.9652 43.5692C30.9879 43.5751 31.0028 43.5849 31.0136 43.5966C31.0364 43.621 31.0235 43.6621 30.9899 43.67C30.9484 43.6797 30.9148 43.669 30.893 43.6377C30.8842 43.625 30.8644 43.6338 30.8664 43.6484C30.8673 43.6582 30.8733 43.666 30.8822 43.6729C30.894 43.6817 30.897 43.6924 30.8911 43.7052C30.8347 43.8265 30.7913 43.9204 30.7843 44.0681C30.7754 44.2637 30.6727 44.4672 30.473 44.6814C26.2301 45.1988 22.4152 44.2549 19.0281 41.8496C16.5296 40.0752 14.4947 37.4928 13.4204 34.5778C13.0497 33.5703 12.7088 32.5774 12.5773 31.5122C12.5328 31.1532 12.4913 30.7942 12.4548 30.4352C12.3115 29.0462 12.3253 27.7892 12.4983 26.6595C12.5941 26.0383 12.7957 25.2235 13.1051 24.216L13.1555 24.1768C13.1901 24.1504 13.2089 24.1592 13.2089 24.2033V24.2306C13.2108 24.2473 13.2187 24.259 13.2355 24.2629C13.285 24.2766 13.3097 24.3079 13.3107 24.3558C13.3116 24.3862 13.3275 24.4038 13.3571 24.4077C13.6437 24.4507 13.6161 24.575 13.7999 24.7344C13.8187 24.751 13.8364 24.7501 13.8542 24.7334C13.8671 24.7207 13.8799 24.7109 13.8928 24.7041C13.9155 24.6923 13.9274 24.6992 13.9294 24.7246C13.9323 24.7745 13.9471 24.8068 13.9748 24.8215H13.9768Z" fill="#FCF396"/>
<path fill-rule="evenodd" clip-rule="evenodd" d="M10.6835 26.1399C10.7092 26.1507 10.732 26.1458 10.7537 26.1243C10.7695 26.1076 10.7784 26.1106 10.7784 26.1341C10.7784 26.1458 10.7784 26.1556 10.7784 26.1663C10.7784 26.1918 10.7913 26.2006 10.816 26.1957C10.8684 26.1839 10.9158 26.1976 10.9553 26.2358C10.9702 26.2505 10.983 26.2495 10.9949 26.2328L11.0156 26.2045C11.0196 26.1986 11.0245 26.1976 11.0304 26.2015C11.07 26.228 11.1125 26.2299 11.155 26.2084C11.2143 26.179 11.2874 26.2045 11.3161 26.2642L11.41 26.4598C11.4198 26.4803 11.4357 26.493 11.4584 26.497C11.4782 26.5009 11.489 26.5116 11.49 26.5302C11.491 26.5547 11.489 26.5605 11.4821 26.5488C11.4791 26.542 11.4752 26.5351 11.4712 26.5283C11.4673 26.5204 11.4564 26.5195 11.4525 26.5283C11.4297 26.5752 11.4386 26.6065 11.4772 26.6222C11.494 26.629 11.4999 26.6417 11.4969 26.6584L11.49 26.6985C11.488 26.7112 11.494 26.719 11.5078 26.72C11.5641 26.7249 11.6007 26.7601 11.6165 26.8256C11.5602 27.035 11.5009 27.2443 11.4367 27.4536C11.2953 27.9182 11.065 28.3614 10.8565 28.8074C10.811 28.9043 10.8269 29.0343 10.903 29.1987C11.1184 29.6614 11.3447 30.1152 11.4673 30.6121C11.5187 30.8234 11.5681 31.0367 11.6146 31.2499C12.0109 33.0811 11.6659 34.8369 10.3969 36.2396C10.39 36.2474 10.3831 36.2572 10.3791 36.267C10.3376 36.358 10.3653 36.4039 10.4602 36.4049C12.002 36.4255 13.5823 37.3968 14.4708 38.552C15.1607 39.45 15.5185 40.1063 15.8614 41.1716C15.893 41.2713 15.9879 41.3457 16.146 41.3956C17.9112 41.9502 19.6615 43.2316 20.4601 44.8926C20.7299 45.456 20.7546 46.1202 20.8258 46.7296C20.8297 46.7628 20.8673 46.7824 20.8979 46.7658C21.312 46.5427 21.7222 46.2023 22.0721 46.0165C22.667 45.7015 23.2294 45.5176 23.9272 45.4628C24.6842 45.4012 25.5115 45.4051 26.2438 45.6272C26.7874 45.7905 27.325 45.9206 27.837 46.174C28.0011 46.2552 28.1869 46.3119 28.3944 46.3422C28.3509 46.531 28.4112 46.622 28.5733 46.6171C28.5852 46.6171 28.5921 46.6318 28.5832 46.6396C28.5733 46.6494 28.5634 46.6542 28.5516 46.6542C28.5377 46.6542 28.5348 46.6719 28.5476 46.6787C28.6188 46.71 28.683 46.756 28.7384 46.8137C28.7532 46.8293 28.771 46.8391 28.7917 46.844C28.8767 46.8626 28.9232 46.9193 28.9331 47.0142C28.937 47.0397 28.9489 47.0582 28.9716 47.071L29.195 47.1922C29.2068 47.1981 29.2177 47.2001 29.2296 47.1952C29.2434 47.1903 29.2562 47.1844 29.2671 47.1786C29.3017 47.16 29.3422 47.1893 29.3363 47.2275C29.3284 47.2705 29.3116 47.2813 29.2849 47.2607C29.277 47.2539 29.2691 47.2578 29.2681 47.2685C29.2681 47.2783 29.273 47.294 29.2809 47.2998C29.3037 47.3194 29.3195 47.34 29.3294 47.3634C29.3412 47.3908 29.3333 47.4016 29.3037 47.3986C29.2889 47.3967 29.275 47.3947 29.2602 47.3928C29.2315 47.3879 29.2256 47.3986 29.2414 47.4211C29.3155 47.5278 29.4213 47.5894 29.5587 47.6099C29.5962 47.6148 29.617 47.6363 29.6199 47.6745C29.6209 47.6872 29.6288 47.6892 29.6437 47.6833C29.6822 47.6647 29.7079 47.6764 29.7188 47.7185C29.7385 47.7948 29.784 47.8545 29.8542 47.8985C29.8739 47.9102 29.8898 47.9073 29.9046 47.8897C29.9461 47.8388 30.0014 47.8251 30.0716 47.8496C30.5964 48.4287 30.9572 49.0782 31.1528 49.7962C31.3377 50.4711 31.3268 51.3788 31.3416 52.1428C31.3535 52.6994 31.2971 53.1396 31.1716 53.4624C31.0155 53.8673 30.8979 54.3114 30.719 54.6704C30.3078 55.4891 29.7455 56.1944 29.0299 56.7852C28.7255 57.0376 28.4122 57.2068 28.0426 57.018C27.1896 56.5827 26.2942 55.3141 25.9641 54.5481C25.7753 54.1099 25.5174 53.4144 25.4482 52.853C25.1784 50.6755 25.5421 48.7378 27.2371 47.2363C27.3152 47.1668 27.3053 47.0445 27.2163 46.9898C26.5927 46.6053 25.9493 46.5682 25.2446 46.443C24.9936 46.398 24.7702 46.3804 24.5765 46.3892C23.2442 46.4459 22.0266 46.8998 21.2231 47.9953C21.0857 48.1822 20.9987 48.4081 20.9039 48.6272C20.4354 49.7296 20.8999 51.0189 22.0731 51.3788C22.7224 51.5784 23.3243 51.3798 23.8758 50.7851C24.2227 50.4104 24.7742 50.4447 24.8157 51.0345C24.8414 51.3935 23.9538 52.0401 23.6613 52.1888C22.2865 52.8892 20.7349 52.088 20.0687 50.8369C19.9027 50.5229 19.8335 50.1278 19.7317 49.7639C19.7109 49.6895 19.62 49.6602 19.5578 49.7081C18.9905 50.1503 18.2196 50.4417 17.4793 50.388C16.5107 50.3175 15.6568 49.7815 15.2131 48.9138C14.9927 48.4825 14.713 47.2177 15.2635 46.9184C15.5372 46.7697 15.8663 46.9301 15.9444 47.2177C15.984 47.3615 16.0008 47.5571 15.9958 47.8046C15.983 48.4472 16.2212 48.9138 16.7104 49.2024C16.9308 49.3325 17.1986 49.4059 17.5139 49.4215C18.9104 49.4919 19.7643 48.3103 19.8681 47.0123C20.0163 45.1733 18.6712 43.6708 17.1838 42.8853C16.8893 42.7298 16.5849 42.5811 16.2716 42.4393C16.1974 42.405 16.1124 42.4618 16.1184 42.543C16.1599 43.214 16.1026 43.8801 15.9464 44.5424C15.8733 44.8495 15.6875 45.2359 15.389 45.7035C14.5657 46.9917 13.2572 48.2184 11.7747 48.6947C11.4643 48.7945 11.152 48.9295 10.8506 48.9882C10.1607 49.1241 9.46691 49.1457 8.76915 49.0527C8.34614 48.996 8.12673 48.8532 8.0615 48.4306C7.62862 45.6223 9.25541 43.0771 11.6462 41.6959C12.6701 41.1041 13.5349 41.0855 14.6329 41.0444C14.6586 41.0424 14.6794 41.0209 14.6774 40.9955C14.6685 40.8155 14.626 40.6404 14.5499 40.4692C13.9075 39.0235 12.675 37.7939 11.1145 37.4437C10.8348 37.3811 10.5373 37.3929 10.2457 37.3929C9.21785 37.3929 8.03383 37.9465 7.78378 39.0039C7.47641 40.302 8.25028 41.4259 9.68928 41.2273C10.1765 41.1598 10.4533 41.7604 10.0619 42.0744C9.77823 42.3004 9.35226 42.2945 8.97176 42.2231C8.24336 42.0862 7.66222 41.7223 7.22636 41.1334C7.06428 40.9153 6.84487 40.4614 6.78557 40.1464C6.61953 39.2573 6.8251 38.4297 7.40525 37.6658C7.45269 37.6032 7.4181 37.5142 7.342 37.4995C6.27856 37.2853 5.39202 36.7805 4.91466 35.7231C4.58752 34.9993 4.60828 34.2735 4.97594 33.5477C5.16866 33.1662 5.67469 32.4677 6.14118 32.4511C6.48709 32.4394 6.70057 32.859 6.55035 33.1456C6.52267 33.1975 6.42878 33.3002 6.26571 33.4557C6.05519 33.6562 5.75968 33.9761 5.71027 34.2715C5.63021 34.7537 5.65294 35.2526 5.93363 35.6615C6.36652 36.2934 7.17596 36.6133 7.93006 36.4959C9.05675 36.3198 9.92154 35.5294 10.389 34.5307C10.7646 33.7286 10.7863 32.6937 10.7003 31.8182C10.6371 31.1746 10.4384 30.6493 10.1657 30.0605C10.138 29.9998 10.0579 29.9842 10.0095 30.0301C9.75847 30.262 9.51336 30.5398 9.26134 30.7383C8.52602 31.3135 7.78872 31.6392 6.92295 31.7869C6.29635 31.8945 5.71027 31.8887 5.04413 31.8808C3.14456 31.8583 1.498 30.9711 0.270498 29.5567C-0.223667 28.9864 0.0253923 28.5805 0.487931 28.0933C1.79846 26.7122 3.64367 25.9257 5.56992 25.9844C6.5039 26.0118 7.56932 26.1986 8.52503 26.7249C9.10716 27.0447 9.48766 27.4448 9.95119 27.8517C9.99072 27.886 10.05 27.8928 10.1034 27.8703C10.134 27.8566 10.1666 27.8253 10.2003 27.7735C10.5106 27.2961 10.6045 26.7885 10.6796 26.1409L10.6835 26.1399ZM6.32995 27.0115C4.37306 26.8041 2.55058 27.3411 1.20941 28.7204C1.15901 28.7732 1.1175 28.8328 1.08488 28.9003C1.07104 28.9297 1.07302 28.9561 1.09081 28.9825C1.70457 29.8991 2.91725 30.5368 3.97377 30.7726C5.13605 31.0318 6.23309 31.0044 7.26392 30.6904C8.03482 30.4556 9.17634 29.7797 9.48964 29.0001C9.51731 28.9336 9.50743 28.8563 9.46394 28.7966C8.697 27.748 7.65234 27.1533 6.32896 27.0115H6.32995ZM14.882 42.138C14.1476 42.0421 13.0753 42.0363 12.425 42.3659C11.156 43.0086 9.98578 44.2088 9.41354 45.545C9.30482 45.7993 9.24256 46.0908 9.16448 46.3696C9.01623 46.8998 9.00437 47.4251 9.01821 47.9572C9.0192 48.0012 9.04786 48.0393 9.09035 48.053C9.33645 48.1303 9.52917 48.1029 9.77725 48.0931C11.6422 48.0208 13.0793 47.1277 14.2 45.7172C15.0223 44.6832 15.2032 43.6933 15.1123 42.3874C15.1014 42.2368 15.0292 42.1585 14.883 42.138H14.882ZM30.3602 51.7662C30.4571 50.1894 29.9253 48.8913 28.768 47.8721C28.6731 47.788 28.5239 47.7214 28.3213 47.6716C28.2946 47.6657 28.2679 47.6686 28.2432 47.6823C28.1374 47.74 28.0505 47.7997 27.9833 47.8633C27.3596 48.4414 26.654 49.2112 26.5018 50.1512C26.3832 50.8839 26.3525 51.6205 26.4108 52.3619C26.4365 52.6896 26.5245 53.0134 26.6016 53.3391C26.6678 53.6179 26.7429 53.8546 26.8309 54.0493C27.1076 54.6626 27.6818 55.629 28.2837 55.9606C28.3104 55.9743 28.3371 55.9773 28.3658 55.9685C28.4419 55.943 28.511 55.9039 28.5713 55.8501C29.8058 54.7438 30.2633 53.387 30.3612 51.7672L30.3602 51.7662Z" fill="#FCF396"/>
<path fill-rule="evenodd" clip-rule="evenodd" d="M42.2377 36.8774C40.6702 39.6779 38.1233 41.9385 35.2305 43.3255C34.8025 43.531 34.1473 43.7823 33.2657 44.0807C32.5017 44.3389 31.5717 44.5395 30.4727 44.6803C30.6713 44.4671 30.7751 44.2626 30.784 44.067C30.7909 43.9193 30.8344 43.8254 30.8907 43.7041C30.8976 43.6914 30.8947 43.6806 30.8818 43.6718C30.8729 43.665 30.867 43.6571 30.866 43.6474C30.864 43.6327 30.8838 43.6239 30.8927 43.6366C30.9154 43.6679 30.948 43.6787 30.9896 43.6689C31.0222 43.661 31.036 43.62 31.0133 43.5955C31.0024 43.5838 30.9876 43.574 30.9648 43.5681C35.4924 42.8413 39.2559 40.1181 41.5271 36.222L41.5785 36.2553C41.6101 36.2748 41.6289 36.267 41.6349 36.2298C41.6358 36.2171 41.6408 36.2083 41.6497 36.1995C41.6833 36.1672 41.708 36.1731 41.7238 36.2161L41.7554 36.2993C41.7653 36.3247 41.7841 36.3384 41.8118 36.3414C41.8879 36.3482 41.9432 36.3824 41.9768 36.4411C42.0331 36.536 42.0836 36.6064 42.1073 36.6896C42.1152 36.717 42.131 36.7365 42.1557 36.7473C42.1923 36.7649 42.2199 36.8079 42.2387 36.8754L42.2377 36.8774Z" fill="#FCF396"/>
<path fill-rule="evenodd" clip-rule="evenodd" d="M43.307 37.5474C43.3297 37.5748 43.3673 37.5885 43.4167 37.5875C43.4513 37.5865 43.473 37.6012 43.4839 37.6325C43.5373 37.787 43.645 37.879 43.8081 37.9054C43.8328 37.9093 43.8506 37.9298 43.8516 37.9543V38.0188C43.8535 38.0511 43.8693 38.0736 43.9 38.0863C43.9652 38.1137 44.0502 38.1245 44.154 38.1225C43.1607 38.7486 42.4096 39.8764 41.9717 40.9309C41.9381 41.0111 41.9984 41.1001 42.0854 41.0982C42.7001 41.0913 43.307 41.1471 43.9059 41.2684C44.6778 41.4249 45.3746 41.867 46.0318 42.3747C46.951 43.0868 47.6724 43.9701 48.1953 45.0265C48.2635 45.1635 48.3682 45.455 48.5105 45.899C48.7873 46.7677 48.8525 47.7918 48.6262 48.6428C48.4364 49.3608 46.605 49.128 46.0872 49.0478C43.9553 48.7182 42.0508 47.1423 41.0684 45.2896C40.6523 44.5051 40.6207 43.6287 40.6009 42.7337C40.599 42.63 40.5466 42.5644 40.4448 42.538C40.3805 42.5214 40.2876 42.538 40.1671 42.5909C38.4928 43.3098 36.9184 44.7653 36.9056 46.7178C36.9016 47.3761 37.0479 48.2545 37.5292 48.7534C38.0738 49.3188 38.7419 49.5183 39.5335 49.351C40.0504 49.2425 40.4122 48.9676 40.6207 48.5264C40.7759 48.1958 40.7788 47.7703 40.7769 47.3927C40.7739 46.8968 41.3975 46.751 41.694 47.1179C41.7513 47.1902 41.7879 47.336 41.8018 47.559C41.9026 49.1534 40.6405 50.4564 39.0265 50.4368C38.2813 50.428 37.6775 50.0612 37.0696 49.7071C37.039 49.6885 36.9995 49.7071 36.9945 49.7413C36.9688 49.9027 36.9728 50.0641 36.9293 50.2138C36.618 51.3074 35.935 52.0136 34.8815 52.3325C34.325 52.4998 33.6233 52.4597 33.1222 52.2102C32.7131 52.0078 31.7494 51.3847 31.9303 50.878C32.0114 50.652 32.2525 50.4926 32.4937 50.5581C32.5895 50.5845 32.7071 50.6735 32.8455 50.8261C33.7281 51.7965 35.0851 51.5588 35.7364 50.4877C36.0961 49.8969 36.018 48.9412 35.7186 48.3787C35.0386 47.0993 33.6204 46.3803 32.1962 46.4351C31.1881 46.4732 30.3282 46.5642 29.416 47.0093C29.3597 47.0367 29.3498 47.113 29.3992 47.1521C29.6611 47.3644 29.8845 47.5962 30.0703 47.8456C30.0001 47.8221 29.9448 47.8358 29.9032 47.8857C29.8884 47.9033 29.8726 47.9063 29.8528 47.8945C29.7827 47.8505 29.7372 47.7908 29.7174 47.7145C29.7066 47.6725 29.6809 47.6607 29.6423 47.6793C29.6275 47.6852 29.6196 47.6832 29.6186 47.6705C29.6156 47.6324 29.5949 47.6109 29.5573 47.606C29.42 47.5854 29.3152 47.5238 29.2401 47.4172C29.2233 47.3947 29.2302 47.3849 29.2589 47.3888C29.2737 47.3908 29.2875 47.3927 29.3023 47.3947C29.332 47.3986 29.3399 47.3869 29.328 47.3595C29.3182 47.336 29.3014 47.3154 29.2796 47.2959C29.2717 47.289 29.2658 47.2744 29.2668 47.2646C29.2668 47.2538 29.2757 47.2509 29.2836 47.2568C29.3102 47.2783 29.3271 47.2675 29.335 47.2235C29.3419 47.1853 29.3004 47.156 29.2658 47.1746C29.2549 47.1805 29.2421 47.1863 29.2282 47.1912C29.2164 47.1961 29.2045 47.1942 29.1936 47.1883L28.9703 47.067C28.9475 47.0543 28.9357 47.0357 28.9317 47.0103C28.9218 46.9144 28.8754 46.8577 28.7904 46.8401C28.7696 46.8352 28.7518 46.8254 28.737 46.8097C28.6827 46.752 28.6174 46.706 28.5463 46.6747C28.5334 46.6689 28.5364 46.6503 28.5502 46.6503C28.5631 46.6503 28.573 46.6454 28.5819 46.6356C28.5907 46.6278 28.5838 46.6131 28.572 46.6131C28.4099 46.618 28.3496 46.5261 28.3931 46.3382C28.7459 46.216 29.0997 46.0683 29.4545 45.8951C29.6235 45.812 29.9833 45.7142 30.5318 45.6017C32.0005 45.2984 33.3288 45.3699 34.6808 46.0467C35.0208 46.217 35.3796 46.5153 35.7482 46.7256C35.771 46.7393 35.7878 46.7334 35.7976 46.709C35.8421 46.5984 35.8688 46.5055 35.8777 46.4341C36.019 45.3141 36.4747 44.3408 37.2436 43.5162C37.4373 43.3088 37.6231 43.0829 37.8306 42.9068C38.7063 42.1634 39.6324 41.7389 40.6968 41.3231C40.8174 41.2762 40.8668 41.2155 40.9113 41.0884C41.3817 39.716 42.1467 38.46 43.305 37.5435L43.307 37.5474ZM41.6723 42.2436C41.613 43.0193 41.6051 43.8938 41.8709 44.6284C42.3236 45.8805 43.8397 47.3106 45.0731 47.7683C45.8806 48.0677 46.696 48.1997 47.5469 48.1029C47.5983 48.097 47.6408 48.0598 47.6546 48.0109C47.711 47.8055 47.6942 47.6128 47.6902 47.4005C47.6517 45.4843 46.5616 43.8478 44.999 42.7884C44.0453 42.1428 43.1508 42.0754 42.0271 42.0851C41.9253 42.0861 41.8383 42.0978 41.7681 42.1213C41.7079 42.1409 41.6752 42.182 41.6713 42.2436H41.6723Z" fill="#FCF396"/>
<path fill-rule="evenodd" clip-rule="evenodd" d="M23.7841 17.5311L32.8718 17.5458C32.8886 17.5458 32.8985 17.5615 32.8926 17.5761L30.57 23.0666C30.567 23.0754 30.5591 23.0803 30.5492 23.0803H26.1166C26.1067 23.0793 26.0988 23.0735 26.0958 23.0657L23.7624 17.5624C23.7565 17.5478 23.7673 17.5311 23.7831 17.5311H23.7841Z" fill="#F9A52E"/>
<path fill-rule="evenodd" clip-rule="evenodd" d="M16.7677 24.0643L23.2007 17.7727C23.2126 17.7609 23.2333 17.7658 23.2392 17.7805L25.5648 23.2788C25.5687 23.2876 25.5668 23.2984 25.5588 23.3052L22.4288 26.3748C22.4219 26.3816 22.412 26.3836 22.4031 26.3796L16.7746 24.1034C16.7588 24.0966 16.7548 24.077 16.7667 24.0643H16.7677Z" fill="#F9A52E"/>
<path fill-rule="evenodd" clip-rule="evenodd" d="M34.2404 26.3825L31.1025 23.3179C31.1025 23.3179 31.0966 23.3062 31.0985 23.3003L33.4369 17.7775C33.4419 17.7667 33.4557 17.7638 33.4636 17.7716L39.9036 24.0662C39.9115 24.074 39.9095 24.0887 39.8976 24.0926L34.2572 26.3845C34.2513 26.3874 34.2444 26.3864 34.2395 26.3815L34.2404 26.3825Z" fill="#F9A52E"/>
<path fill-rule="evenodd" clip-rule="evenodd" d="M22.188 26.9177L22.2009 31.2549C22.2009 31.2637 22.1959 31.2715 22.187 31.2745L16.5743 33.5536C16.5605 33.5595 16.5456 33.5487 16.5456 33.5341L16.5269 24.6346C16.5269 24.6199 16.5427 24.6092 16.5565 24.615L22.1752 26.8981C22.1831 26.902 22.188 26.9089 22.188 26.9177Z" fill="#F9A52E"/>
<path fill-rule="evenodd" clip-rule="evenodd" d="M40.1142 33.5635L34.4955 31.2784C34.4886 31.2755 34.4847 31.2696 34.4847 31.2618L34.4609 26.9265C34.4609 26.9197 34.4649 26.9128 34.4728 26.9099L40.0984 24.6347C40.1102 24.6298 40.1231 24.6386 40.1231 24.6513L40.1399 33.5468C40.1399 33.5596 40.126 33.5684 40.1142 33.5635Z" fill="#F9A52E"/>
<path fill-rule="evenodd" clip-rule="evenodd" d="M22.4506 31.8056L25.5589 34.8634C25.5678 34.8722 25.5697 34.8839 25.5648 34.8947L23.2353 40.392C23.2274 40.4096 23.2027 40.4155 23.1879 40.4008L16.7865 34.1219C16.7716 34.1072 16.7766 34.0828 16.7963 34.0749L22.4189 31.7968C22.4298 31.7929 22.4427 31.7958 22.4506 31.8036V31.8056Z" fill="#F9A52E"/>
<path fill-rule="evenodd" clip-rule="evenodd" d="M39.8916 34.1208L33.4744 40.4105C33.4596 40.4252 33.4349 40.4203 33.428 40.4007L31.1123 34.8985C31.1083 34.8887 31.1103 34.876 31.1192 34.8672L34.2226 31.8025C34.2305 31.7957 34.2433 31.7928 34.2532 31.7967L39.8827 34.0729C39.9025 34.0807 39.9074 34.1052 39.8926 34.1198L39.8916 34.1208Z" fill="#F9A52E"/>
<path fill-rule="evenodd" clip-rule="evenodd" d="M32.8628 40.6484H23.8146C23.7869 40.6493 23.7681 40.6219 23.779 40.5965L26.1036 35.1031C26.1095 35.0884 26.1233 35.0796 26.1391 35.0796L30.5263 35.0815C30.5422 35.0815 30.555 35.0913 30.5619 35.105L32.8973 40.5955C32.9082 40.621 32.8894 40.6484 32.8618 40.6484H32.8628Z" fill="#F9A52E"/>
<path fill-rule="evenodd" clip-rule="evenodd" d="M80.7869 26.3915V25.8871C79.839 25.773 79.4707 25.6124 78.4303 24.5619C77.5296 23.6238 75.3581 21.2241 73.8796 19.4636C75.2202 18.1367 76.6743 16.72 77.3219 16.1257C78.5927 15.0062 78.961 14.8455 80.4395 14.7073V14.2045H75.9341V14.7073L76.3496 14.7539C77.2276 14.8455 77.2276 15.0286 76.6743 15.7145C75.7735 16.7891 74.4102 18.116 73.3943 19.0748C72.8863 19.5551 72.5162 19.8074 72.1008 19.9214V16.606C72.1008 14.9371 72.2858 14.823 73.7643 14.7073V14.2045H68.9604V14.7073C70.4617 14.823 70.624 14.9146 70.624 16.606V23.9901C70.624 25.6365 70.4617 25.773 69.0058 25.8871V26.3915H73.8569V25.8871C72.2631 25.773 72.1008 25.6348 72.1008 23.9901V20.3775C72.4255 20.3326 72.6786 20.4 73.1167 20.9044C74.8728 22.893 76.4194 24.676 77.9678 26.3915H80.7852H80.7869ZM87.394 13.9074C83.4437 13.9074 81.0191 17.0396 81.0191 20.4466C81.0191 24.035 83.7911 26.6662 87.1863 26.6662C90.5815 26.6662 93.5385 24.1732 93.5385 20.127C93.5385 16.3779 90.6042 13.9091 87.4167 13.9091H87.394V13.9074ZM87.0013 14.5708C89.5429 14.5708 91.7371 16.6509 91.7371 20.6522C91.7371 24.2648 89.7506 26.0253 87.6017 26.0253C84.8769 26.0253 82.8432 23.4424 82.8432 19.8972C82.8432 16.352 84.8769 14.5708 87.0013 14.5708ZM108.044 14.2045H103.171V14.7073C104.672 14.823 104.834 14.9371 104.834 16.4902V19.5309H98.1592V16.4902C98.1592 14.9353 98.3197 14.8213 99.7529 14.7073V14.2045H94.9472V14.7073C96.5183 14.823 96.6562 14.9146 96.6562 16.4902V24.1041C96.6562 25.6815 96.5165 25.773 94.9699 25.8871V26.3915H99.8664V25.8871C98.2953 25.773 98.1574 25.659 98.1574 24.1041V20.3326H104.833V24.1041C104.833 25.6815 104.67 25.773 103.029 25.8871V26.3915H108.018V25.8871C106.472 25.773 106.309 25.6815 106.309 24.1041V16.4902C106.309 14.9353 106.472 14.8213 108.043 14.7073V14.2045H108.044ZM114.419 26.3915V25.8871C112.848 25.773 112.71 25.6815 112.71 24.0592V16.5144C112.71 14.9371 112.85 14.823 114.419 14.7073V14.2045H109.476V14.7073C111.047 14.823 111.208 14.9371 111.208 16.5144V24.0592C111.208 25.6815 111.045 25.773 109.476 25.8871V26.3915H114.419ZM128.835 14.2045H124.376V14.7073C125.67 14.7764 126.131 15.0062 126.248 15.8735C126.316 16.3987 126.363 17.2452 126.363 18.9833V23.762H126.316L118.277 14.2063H115.551V14.709C116.476 14.7781 116.867 14.9388 117.26 15.3949C117.607 15.8527 117.63 15.8752 117.63 17.2919V21.4297C117.63 23.1677 117.607 24.0816 117.537 24.6535C117.422 25.6141 116.937 25.8179 115.851 25.8871V26.3915H120.332V25.8871C119.061 25.8179 118.6 25.6123 118.508 24.6293C118.461 24.0799 118.391 23.166 118.391 21.4279V16.6716H118.438L126.592 26.5488H127.124V18.9815C127.124 17.2452 127.147 16.397 127.216 15.8044C127.309 15.0045 127.772 14.7522 128.833 14.7073V14.2045H128.835ZM142.925 14.2045H138.444V14.7073C139.783 14.7989 140.153 15.0062 140.268 15.737C140.361 16.3313 140.385 17.1312 140.385 18.9142V20.2168C140.385 23.3025 139.553 25.659 136.758 25.659C134.356 25.659 133.108 23.921 133.108 20.8578V16.5818C133.108 14.8904 133.27 14.7989 134.771 14.7073V14.2045H129.943V14.7073C131.467 14.8455 131.629 14.9146 131.629 16.5818V21.269C131.629 23.4856 132.16 24.8798 133.316 25.7506C134.124 26.3915 135.21 26.642 136.295 26.642C137.543 26.642 138.837 26.2533 139.715 25.3618C140.801 24.2181 141.171 22.5958 141.171 20.3775V18.9142C141.171 17.1312 141.216 16.3071 141.263 15.8044C141.333 15.0269 141.771 14.7747 142.927 14.7073V14.2045H142.925ZM155.26 26.0702C154.844 25.9562 154.382 25.7506 153.851 25.1787C153.39 24.6742 153.02 24.2181 152.327 23.2126C151.749 22.3885 150.941 21.1308 150.595 20.4915C152.027 19.8747 153.022 18.8917 153.022 17.2677C153.022 16.1482 152.536 15.3016 151.751 14.8213C151.058 14.3635 150.157 14.2028 148.794 14.2028H144.128V14.7056C145.629 14.8213 145.791 14.8662 145.791 16.4885V24.0574C145.791 25.6573 145.629 25.7713 144.06 25.8853V26.3898H148.956V25.8853C147.408 25.7713 147.246 25.6573 147.246 24.0574V21.0392H147.893C148.934 21.0392 149.232 21.269 149.579 21.7942C150.157 22.6857 150.85 23.876 151.543 24.8349C152.421 26.046 153.229 26.4347 154.5 26.5263C154.732 26.5488 154.963 26.5488 155.216 26.5488L155.261 26.0685L155.26 26.0702ZM147.244 20.4691V15.8285C147.244 15.2791 147.314 15.0736 147.476 14.982C147.614 14.868 147.961 14.7989 148.516 14.7989C150.018 14.7989 151.404 15.5539 151.404 17.5649C151.404 18.5946 151.081 19.3253 150.34 19.9197C149.832 20.3084 149.208 20.4691 148.239 20.4691H147.246H147.244ZM160.413 14.2045V14.7073C161.821 14.7989 161.984 14.8455 161.984 16.5144V24.0592C161.984 25.6141 161.821 25.773 160.297 25.8871V26.3915H165.356V25.8871C163.623 25.773 163.46 25.6815 163.46 24.0816V21.0876L164.894 21.4538C165.079 21.4763 165.471 21.4763 165.749 21.4538C167.596 21.2241 169.422 20.0354 169.422 17.6115C169.422 16.4004 168.959 15.5314 168.243 14.982C167.481 14.4101 166.372 14.2045 165.056 14.2045H160.413ZM163.46 15.9426C163.46 15.3483 163.53 15.1427 163.67 15.0045C163.808 14.8662 164.248 14.7747 164.778 14.7747C166.419 14.7747 167.713 15.6661 167.713 17.6789C167.713 20.0579 166.211 20.7196 164.895 20.7196C164.248 20.7196 163.717 20.5814 163.462 20.4898V15.9408L163.46 15.9426ZM179.422 23.394C179.145 24.2406 178.775 24.8349 178.452 25.2012C178.013 25.6815 177.389 25.773 176.305 25.773C175.472 25.773 174.803 25.7264 174.433 25.5208C174.086 25.3152 173.993 24.9489 173.993 23.921V16.5144C173.993 14.8904 174.156 14.7989 175.68 14.7073V14.2045H170.829V14.7073C172.377 14.823 172.492 14.9146 172.492 16.5144V24.035C172.492 25.6348 172.332 25.773 170.761 25.8871V26.3915H179.284C179.469 25.7972 179.862 24.0367 179.955 23.4649L179.424 23.3958L179.422 23.394ZM193.144 26.3915V25.8871C191.921 25.773 191.643 25.6123 191.065 23.9901C189.842 20.7213 188.548 17.1312 187.37 13.9074L186.838 14.0663L182.889 23.9434C182.219 25.6124 181.966 25.7039 180.74 25.8871V26.3915H184.875V25.8871C183.42 25.7506 183.257 25.5674 183.697 24.3563C183.929 23.5564 184.23 22.779 184.553 21.8875H188.665C189.103 23.0986 189.498 24.1283 189.728 24.8815C189.983 25.5916 189.798 25.7281 188.573 25.8871V26.3915H193.146H193.144ZM188.409 21.1083H184.828C185.406 19.5309 186.029 17.862 186.652 16.2155H186.7L188.409 21.1083ZM204.14 23.121C203.793 24.0125 203.492 24.6293 203.147 25.018C202.616 25.6123 201.968 25.7264 199.451 25.7264C198.135 25.7264 196.864 25.7039 196.264 25.6123C198.921 21.8184 201.555 18.1592 204.212 14.4326L204.096 14.2045H196.496C195.964 14.2045 195.733 14.1579 195.525 13.7242H195.063C195.038 14.5483 194.923 15.9875 194.831 17.1295H195.386C195.593 16.3296 195.779 15.8717 196.033 15.5297C196.356 15.0269 196.634 14.8438 198.713 14.8438H202.155C199.453 18.7069 196.751 22.3643 194.047 26.1376L194.185 26.3898H204.002C204.21 25.6123 204.555 23.8743 204.695 23.2351L204.14 23.121ZM218 26.3915V25.8871C216.776 25.773 216.499 25.6123 215.921 23.9901C214.697 20.7213 213.402 17.1312 212.226 13.9074L211.693 14.0663L207.743 23.9434C207.073 25.6124 206.818 25.7039 205.594 25.8871V26.3915H209.729V25.8871C208.275 25.7506 208.113 25.5674 208.553 24.3563C208.783 23.5564 209.083 22.779 209.408 21.8875H213.519C213.959 23.0986 214.35 24.1283 214.582 24.8815C214.835 25.5916 214.65 25.7281 213.427 25.8871V26.3915H218ZM213.264 21.1083H209.684C210.262 19.5309 210.885 17.862 211.508 16.2155H211.555L213.264 21.1083Z" fill="#F9A52E"/>
<path fill-rule="evenodd" clip-rule="evenodd" d="M121.253 40.5083V40.1886C120.515 40.1282 120.406 40.0504 120.406 39.2125V37.0477C120.406 35.5239 119.684 34.8985 118.666 34.8985C117.973 34.8985 117.296 35.3857 116.833 35.828V31.5745C116.386 31.7265 115.632 31.9252 115.047 32.0167V32.3053C115.896 32.3813 115.925 32.4418 115.925 33.2209V39.2108C115.925 40.0487 115.817 40.1247 115.047 40.1869V40.5065H117.697V40.1869C116.912 40.1264 116.835 40.0349 116.835 39.2108V36.2685C117.205 35.8418 117.713 35.5827 118.221 35.5827C119.113 35.5827 119.499 36.1165 119.499 37.1669V39.209C119.499 40.047 119.39 40.123 118.636 40.1852V40.5048H121.253V40.5083ZM124.704 34.8985C123.58 34.8985 121.948 35.8124 121.948 37.8856C121.948 39.2868 122.995 40.6586 124.704 40.6586C125.935 40.6586 127.431 39.698 127.431 37.687C127.431 36.1321 126.244 34.8985 124.72 34.8985H124.704ZM124.564 35.3114C125.72 35.3114 126.334 36.5312 126.334 37.9478C126.334 39.6392 125.657 40.2646 124.84 40.2646C123.761 40.2646 123.054 39.0916 123.054 37.5056C123.054 36.0889 123.763 35.3114 124.549 35.3114H124.564ZM131.494 40.0504L131.386 39.7619C131.217 39.8535 130.924 39.9744 130.585 39.9744C130.246 39.9744 129.847 39.7757 129.847 38.7547V35.5239H131.217C131.386 35.4323 131.418 35.1732 131.309 35.0367H129.847V33.3453L129.662 33.3298L128.937 34.1383V35.0367H128.337L127.998 35.3874L128.043 35.5256H128.937V39.1831C128.937 40.1593 129.353 40.662 130.138 40.662C130.262 40.662 130.445 40.6171 130.662 40.4944L131.494 40.0521V40.0504ZM136.283 39.2125C135.82 39.6392 135.343 39.8535 134.836 39.8535C133.944 39.8535 132.926 39.152 132.91 37.4002C134.467 37.3397 136.052 37.217 136.269 37.1877C136.485 37.1272 136.546 37.0495 136.546 36.792C136.546 35.8159 135.698 34.902 134.652 34.902C134.005 34.902 133.327 35.2527 132.819 35.8314C132.311 36.3808 131.988 37.1566 131.988 37.9945C131.988 39.4112 132.912 40.662 134.438 40.662C134.806 40.662 135.668 40.434 136.469 39.4734L136.284 39.2142L136.283 39.2125ZM134.359 35.3563C135.068 35.3563 135.515 35.9507 135.515 36.6072C135.515 36.7748 135.438 36.8508 135.207 36.8508C134.438 36.8819 133.713 36.8957 132.975 36.8957C133.175 35.8746 133.76 35.3563 134.345 35.3563H134.361H134.359ZM139.81 40.5083V40.1886C138.995 40.1282 138.871 40.0504 138.871 39.2125V31.5762C138.486 31.7282 137.716 31.9425 137.068 32.0185V32.307C137.885 32.383 137.962 32.3986 137.962 33.2676V39.2125C137.962 40.0504 137.854 40.1264 137.038 40.1886V40.5083H139.81ZM152.037 35.1577H149.156V35.4928C150.066 35.6155 150.188 35.752 149.942 36.3463C149.696 36.9095 149.479 37.3362 149.156 37.8252C148.371 37.0166 147.448 36.2254 147.016 35.8729C147.524 35.5222 147.802 35.3097 148.032 35.111C148.294 34.8985 148.572 34.5322 148.572 33.9984C148.572 33.0084 147.741 32.2915 146.739 32.2915C145.63 32.2915 144.675 33.1311 144.675 34.2437C144.675 34.9141 145.014 35.4479 145.615 35.9818C144.536 36.7437 143.689 37.2464 143.689 38.4195C143.689 39.501 144.583 40.6758 146.184 40.6758C147.091 40.6758 147.924 40.2336 148.863 38.9983C149.263 39.425 149.818 40.0504 149.972 40.2335C150.125 40.4011 150.818 40.6758 151.419 40.7519L151.527 40.6154C151.173 39.9295 149.972 38.6182 149.464 38.1448C149.926 37.4589 150.233 36.9406 150.572 36.4379C150.988 35.8435 151.141 35.5999 152.035 35.4928V35.1577H152.037ZM146.601 32.7044C147.217 32.7044 147.664 33.2987 147.664 34.0312C147.664 34.686 147.325 35.1749 146.678 35.631C145.939 35.0678 145.54 34.6255 145.54 33.9846C145.54 33.2071 145.986 32.7044 146.585 32.7044H146.601ZM146.463 39.8517C145.632 39.8517 144.709 39.2868 144.709 38.0999C144.709 37.4589 145.032 36.849 145.925 36.2409C147.111 37.1704 147.943 37.9634 148.573 38.6648C148.142 39.2747 147.357 39.8535 146.463 39.8535V39.8517ZM158.998 36.4223C158.951 36.1182 158.813 35.3857 158.721 35.111C158.459 35.0039 158.12 34.8985 157.612 34.8985C156.472 34.8985 155.718 35.631 155.718 36.5001C155.718 37.4434 156.504 37.8563 157.305 38.207C157.905 38.4817 158.305 38.7858 158.305 39.3507C158.305 39.9157 157.844 40.2646 157.366 40.2646C156.612 40.2646 156.057 39.5632 155.826 38.7253L155.503 38.7858C155.503 39.2125 155.627 40.066 155.718 40.2335C155.935 40.4167 156.488 40.6603 157.136 40.6603C158.152 40.6603 159.215 40.066 159.215 38.9378C159.215 38.0999 158.567 37.642 157.628 37.2602C157.057 37.0477 156.533 36.7419 156.533 36.1632C156.533 35.6604 156.872 35.2786 157.382 35.2786C157.996 35.2786 158.445 35.7813 158.675 36.5139L159 36.4223H158.998ZM161.617 35.7831V34.762C161.048 35.0056 160.354 35.2337 159.847 35.3114V35.6017C160.632 35.7088 160.693 35.7226 160.693 36.5467V42.2065C160.693 43.0427 160.569 43.1188 159.754 43.1775V43.5282H162.68V43.1775C161.709 43.1188 161.617 43.0427 161.617 42.0735V40.4201C161.77 40.5273 162.109 40.6499 162.495 40.6637C164.158 40.3597 165.668 39.1555 165.668 37.2654C165.668 36.0163 164.821 34.9037 163.42 34.9037C163.282 34.9037 163.036 34.9642 162.819 35.1024L161.618 35.7883L161.617 35.7831ZM161.617 36.1943C161.971 35.9196 162.524 35.6155 162.941 35.6155C163.896 35.6155 164.682 36.3929 164.682 37.7181C164.682 39.1348 163.942 40.0504 162.819 40.0504C162.372 40.0504 161.894 39.8517 161.618 39.5632V36.196L161.617 36.1943ZM171.626 40.0349L171.518 39.7135C171.378 39.7895 171.21 39.8517 171.039 39.8517C170.823 39.8517 170.592 39.6686 170.592 39.1037V36.7575C170.592 36.0871 170.47 35.5982 170.037 35.2337C169.76 35.0056 169.39 34.8985 169.021 34.8985C168.313 35.0367 167.498 35.5239 167.159 35.7675C166.913 35.9351 166.759 36.0871 166.759 36.2547C166.759 36.5588 167.066 36.773 167.283 36.773C167.452 36.773 167.574 36.697 167.637 36.5139C167.73 36.1338 167.854 35.8591 168.007 35.6898C168.147 35.5377 168.346 35.4462 168.592 35.4462C169.255 35.4462 169.7 35.9645 169.7 36.894V37.0926C169.423 37.3051 168.499 37.642 167.745 37.8856C167.037 38.1293 166.714 38.5266 166.714 39.1348C166.714 39.9278 167.328 40.6586 168.208 40.6586C168.608 40.6586 169.224 40.1869 169.732 39.8517C169.777 40.066 169.87 40.2474 170.039 40.415C170.163 40.5376 170.423 40.6586 170.608 40.6586L171.624 40.0349H171.626ZM169.7 39.4406C169.47 39.6997 168.978 39.9139 168.637 39.9277C168.206 39.9277 167.714 39.6237 167.714 38.9672C167.714 38.5093 168.005 38.2657 168.499 38.0377C168.777 37.915 169.423 37.642 169.7 37.5038V39.4388V39.4406Z" fill="#F9A52E"/>
<path d="M112.065 36.6521H74.7158V37.1428H112.065V36.6521Z" fill="#F9A52E"/>
<path d="M211.805 36.6521H174.456V37.1428H211.805V36.6521Z" fill="#F9A52E"/>
</svg>
