<svg width="119" height="24" viewBox="0 0 119 24" fill="none" xmlns="http://www.w3.org/2000/svg">
<path d="M106.549 2.42705C106.848 1.50574 108.152 1.50574 108.451 2.42705L110.082 7.4463C110.216 7.85833 110.6 8.13729 111.033 8.13729H116.311C117.279 8.13729 117.682 9.3769 116.898 9.9463L112.629 13.0484C112.278 13.303 112.132 13.7544 112.265 14.1664L113.896 19.1857C114.196 20.107 113.141 20.8731 112.357 20.3037L108.088 17.2016C107.737 16.947 107.263 16.947 106.912 17.2016L102.643 20.3037C101.859 20.8731 100.804 20.107 101.104 19.1857L102.735 14.1664C102.868 13.7544 102.722 13.303 102.371 13.0484L98.1017 9.9463C97.318 9.3769 97.7208 8.13729 98.6895 8.13729H103.967C104.4 8.13729 104.784 7.85833 104.918 7.4463L106.549 2.42705Z" fill="url(#paint0_linear_254_726)" stroke="#FFD300" stroke-width="1.5"/>
<path d="M10.5489 2.42705C10.8483 1.50574 12.1517 1.50574 12.4511 2.42705L14.0819 7.4463C14.2158 7.85833 14.5997 8.13729 15.033 8.13729H20.3105C21.2792 8.13729 21.682 9.3769 20.8983 9.9463L16.6287 13.0484C16.2782 13.303 16.1315 13.7544 16.2654 14.1664L17.8963 19.1857C18.1956 20.107 17.1411 20.8731 16.3574 20.3037L12.0878 17.2016C11.7373 16.947 11.2627 16.947 10.9122 17.2016L6.64258 20.3037C5.85887 20.8731 4.80439 20.107 5.10374 19.1857L6.7346 14.1664C6.86847 13.7544 6.72181 13.303 6.37132 13.0484L2.10169 9.9463C1.31798 9.3769 1.72075 8.13729 2.68948 8.13729H7.96703C8.40026 8.13729 8.78421 7.85833 8.91809 7.4463L10.5489 2.42705Z" fill="#FFD300" stroke="#FFD300" stroke-width="1.5"/>
<path d="M34.5489 2.42705C34.8483 1.50574 36.1517 1.50574 36.4511 2.42705L38.0819 7.4463C38.2158 7.85833 38.5997 8.13729 39.033 8.13729H44.3105C45.2792 8.13729 45.682 9.3769 44.8983 9.9463L40.6287 13.0484C40.2782 13.303 40.1315 13.7544 40.2654 14.1664L41.8963 19.1857C42.1956 20.107 41.1411 20.8731 40.3574 20.3037L36.0878 17.2016C35.7373 16.947 35.2627 16.947 34.9122 17.2016L30.6426 20.3037C29.8589 20.8731 28.8044 20.107 29.1037 19.1857L30.7346 14.1664C30.8685 13.7544 30.7218 13.303 30.3713 13.0484L26.1017 9.9463C25.318 9.3769 25.7208 8.13729 26.6895 8.13729H31.967C32.4003 8.13729 32.7842 7.85833 32.9181 7.4463L34.5489 2.42705Z" fill="#FFD300" stroke="#FFD300" stroke-width="1.5"/>
<path d="M58.5489 2.42705C58.8483 1.50574 60.1517 1.50574 60.4511 2.42705L62.0819 7.4463C62.2158 7.85833 62.5997 8.13729 63.033 8.13729H68.3105C69.2792 8.13729 69.682 9.3769 68.8983 9.9463L64.6287 13.0484C64.2782 13.303 64.1315 13.7544 64.2654 14.1664L65.8963 19.1857C66.1956 20.107 65.1411 20.8731 64.3574 20.3037L60.0878 17.2016C59.7373 16.947 59.2627 16.947 58.9122 17.2016L54.6426 20.3037C53.8589 20.8731 52.8044 20.107 53.1037 19.1857L54.7346 14.1664C54.8685 13.7544 54.7218 13.303 54.3713 13.0484L50.1017 9.9463C49.318 9.3769 49.7208 8.13729 50.6895 8.13729H55.967C56.4003 8.13729 56.7842 7.85833 56.9181 7.4463L58.5489 2.42705Z" fill="#FFD300" stroke="#FFD300" stroke-width="1.5"/>
<path d="M82.5489 2.42705C82.8483 1.50574 84.1517 1.50574 84.4511 2.42705L86.0819 7.4463C86.2158 7.85833 86.5997 8.13729 87.033 8.13729H92.3105C93.2792 8.13729 93.682 9.3769 92.8983 9.9463L88.6287 13.0484C88.2782 13.303 88.1315 13.7544 88.2654 14.1664L89.8963 19.1857C90.1956 20.107 89.1411 20.8731 88.3574 20.3037L84.0878 17.2016C83.7373 16.947 83.2627 16.947 82.9122 17.2016L78.6426 20.3037C77.8589 20.8731 76.8044 20.107 77.1037 19.1857L78.7346 14.1664C78.8685 13.7544 78.7218 13.303 78.3713 13.0484L74.1017 9.9463C73.318 9.3769 73.7208 8.13729 74.6895 8.13729H79.967C80.4003 8.13729 80.7842 7.85833 80.9181 7.4463L82.5489 2.42705Z" fill="#FFD300" stroke="#FFD300" stroke-width="1.5"/>
<defs>
<linearGradient id="paint0_linear_254_726" x1="97" y1="8.5" x2="117.5" y2="8.5" gradientUnits="userSpaceOnUse">
<stop offset="0.516035" stop-color="#FFD300"/>
<stop offset="0.516135" stop-color="#D9D9D9" stop-opacity="0"/>
</linearGradient>
</defs>
</svg>
